<svg xmlns="http://www.w3.org/2000/svg" width="296" height="50" viewBox="0 0 148 25"><defs><style>.cls-1 { fill-rule: evenodd; fill: url(#linear-gradient); }</style><linearGradient id="linear-gradient" x1="612.109" y1="43" x2="753.891" y2="18" gradientUnits="userSpaceOnUse"><stop offset="0" stop-color="#845e15"/><stop offset=".005" stop-color="#845e15"/><stop offset=".229" stop-color="#a9861c"/><stop offset=".546" stop-color="#94711e"/><stop offset=".832" stop-color="#bfa34f"/><stop offset="1" stop-color="#947323"/></linearGradient></defs><path id="Logo" class="cls-1" d="M621.827 42.687l-7.221-16.44-2.92 15.553h-2.7l4.714-23.789 8.127 18.927 8.126-18.927 4.712 23.789h-2.7l-2.953-15.548-7.188 16.44zm27.982-18.658l-3.694 8.423h7.394l-3.7-8.423zm0-6.018l10.575 23.789h-3l-3.017-7.015h-9.079l-3.014 7.015h-3l10.536-23.785zm17.2 23.785v-22.878h5.455a16.329 16.329 0 0 1 3.424.257 5.088 5.088 0 0 1 1.912.886 5.179 5.179 0 0 1 1.6 2.132 7.4 7.4 0 0 1 .574 2.962 5.5 5.5 0 0 1-1.6 4.272 6.687 6.687 0 0 1-4.676 1.462h-.492l8.881 10.911h-3.51l-8.477-10.912h-.4v10.912h-2.7zm2.7-20.578v7.655h2.107q3.241 0 4.339-.82a3.353 3.353 0 0 0 1.1-2.865 3.715 3.715 0 0 0-1.127-3.088q-1.131-.883-4.307-.881h-2.121zm18.946 20.582v-22.882h2.764v22.882h-2.764zm19.959-17.766l-3.693 8.423h7.394l-3.7-8.423zm0-6.018l10.575 23.784h-3l-3.017-7.015h-9.08l-3.013 7.015h-3l10.536-23.785zm26.786 23.784v-22.882h4.844a19.889 19.889 0 0 1 3.765.257 5.536 5.536 0 0 1 2.086.886 5.435 5.435 0 0 1 1.723 2.085 6.368 6.368 0 0 1 .612 2.791 5.042 5.042 0 0 1-.879 3.029 4.609 4.609 0 0 1-2.561 1.709 4.929 4.929 0 0 1 3.261 1.818 5.935 5.935 0 0 1 1.2 3.8 6.843 6.843 0 0 1-.509 2.626 6.232 6.232 0 0 1-1.414 2.145 5.457 5.457 0 0 1-2.426 1.342 20.829 20.829 0 0 1-4.854.39h-4.848zm2.7-10.721v8.347h2.145a20.813 20.813 0 0 0 3.18-.171 3.832 3.832 0 0 0 1.566-.6 3.383 3.383 0 0 0 1.126-1.387 4.638 4.638 0 0 0 .411-1.974 4.513 4.513 0 0 0-.492-2.172 3.506 3.506 0 0 0-1.43-1.44 4.032 4.032 0 0 0-1.283-.469 13.576 13.576 0 0 0-2.27-.139h-2.953zm0-9.8v7.658h2.145a7.57 7.57 0 0 0 4.156-.844 3.228 3.228 0 0 0 1.207-2.847 3.7 3.7 0 0 0-1.122-3.082c-.741-.593-2.161-.886-4.241-.886h-2.145zm16.739 15.941l2.17 2.251-2.17 2.252-2.169-2.253 2.169-2.251zm-27.5 1.263l2.171 2.251-2.171 2.252-2.17-2.252z" transform="translate(-609 -18)"/></svg>